<?xml version="1.0" encoding="UTF-8" standalone="no"?>
<!-- Created with Inkscape (http://www.inkscape.org/) -->

<svg
   width="500mm"
   height="500mm"
   viewBox="0 0 500 500"
   version="1.1"
   id="svg5"
   inkscape:version="1.1.1 (3bf5ae0, 2021-09-20)"
   sodipodi:docname="logo_fix_full_bold.svg"
   xmlns:inkscape="http://www.inkscape.org/namespaces/inkscape"
   xmlns:sodipodi="http://sodipodi.sourceforge.net/DTD/sodipodi-0.dtd"
   xmlns="http://www.w3.org/2000/svg"
   xmlns:svg="http://www.w3.org/2000/svg">
  <sodipodi:namedview
     id="namedview7"
     pagecolor="#ffffff"
     bordercolor="#666666"
     borderopacity="1.0"
     inkscape:pageshadow="2"
     inkscape:pageopacity="0.0"
     inkscape:pagecheckerboard="0"
     inkscape:document-units="mm"
     showgrid="false"
     inkscape:zoom="0.16703493"
     inkscape:cx="1451.7921"
     inkscape:cy="1221.3014"
     inkscape:window-width="1920"
     inkscape:window-height="1011"
     inkscape:window-x="0"
     inkscape:window-y="0"
     inkscape:window-maximized="1"
     inkscape:current-layer="layer1"
     inkscape:snap-grids="false"
     inkscape:snap-to-guides="true"
     showguides="true"
     inkscape:guide-bbox="true"
     inkscape:snap-object-midpoints="false"
     inkscape:snap-others="true"
     inkscape:snap-nodes="false" />
  <defs
     id="defs2" />
  <g
     inkscape:label="Layer 1"
     inkscape:groupmode="layer"
     id="layer1">
    <g
       aria-label="goolpy"
       id="text2347"
       style="font-size:142.129px;line-height:1.25;letter-spacing:0px;stroke-width:3.55324">
      <path
         d="m 49.499478,445.55128 q -8.669869,0 -16.060577,-2.84258 -7.390708,-2.84258 -12.79161,-7.95923 -5.258773,-4.97451 -7.674966,-11.7967 l 17.339738,-6.53794 q 1.705548,5.4009 6.680063,8.66987 5.116644,3.4111 12.507352,3.4111 5.68516,0 9.94903,-2.13194 4.405999,-2.13193 6.822192,-6.25367 2.416193,-3.97962 2.416193,-9.66477 v -17.624 l 3.553224,4.26387 q -3.979611,6.96432 -10.659674,10.51755 -6.680063,3.55322 -15.207803,3.55322 -10.801804,0 -19.329544,-4.97451 -8.52774,-4.97452 -13.360126,-13.64439 -4.8323856,-8.66987 -4.8323856,-19.47167 0,-10.94393 4.8323856,-19.47167 4.832386,-8.52774 13.217997,-13.36013 8.385611,-4.97451 19.045286,-4.97451 8.669869,0 15.207803,3.69535 6.680063,3.55322 11.086061,10.37542 l -2.558321,4.69025 v -17.05548 h 17.623995 v 73.4807 q 0,10.09115 -4.974515,18.05038 -4.832386,7.95922 -13.360125,12.50735 -8.385611,4.54813 -19.471673,4.54813 z m -0.852774,-51.59283 q 5.969418,0 10.375417,-2.55832 4.548128,-2.70045 7.10645,-7.39071 2.558322,-4.69026 2.558322,-10.8018 0,-5.96942 -2.700451,-10.65968 -2.558322,-4.83238 -7.10645,-7.53283 -4.405999,-2.70046 -10.233288,-2.70046 -5.827289,0 -10.517546,2.70046 -4.690257,2.70045 -7.390708,7.53283 -2.558322,4.69026 -2.558322,10.65968 0,5.96942 2.558322,10.65967 2.700451,4.69026 7.248579,7.39071 4.690257,2.70045 10.659675,2.70045 z"
         style="font-weight:bold;font-family:'Plus Jakarta Sans';-inkscape-font-specification:'Plus Jakarta Sans Bold'"
         id="path999" />
      <path
         d="m 142.30958,415.98845 q -11.37032,0 -20.75083,-5.25878 -9.23838,-5.25877 -14.78142,-14.35503 -5.4009,-9.09625 -5.4009,-20.75083 0,-11.65458 5.4009,-20.75083 5.54304,-9.09626 14.78142,-14.35503 9.23839,-5.25877 20.75083,-5.25877 11.37032,0 20.60871,5.25877 9.23838,5.25877 14.63929,14.35503 5.54303,8.95412 5.54303,20.75083 0,11.65458 -5.54303,20.75083 -5.54304,9.09626 -14.78142,14.35503 -9.23838,5.25878 -20.46658,5.25878 z m 0,-17.05548 q 6.25368,0 10.94394,-2.98471 4.83238,-2.98471 7.53283,-8.24348 2.84258,-5.40091 2.84258,-12.08097 0,-6.82219 -2.84258,-11.93884 -2.70045,-5.25877 -7.53283,-8.24348 -4.69026,-3.12684 -10.94394,-3.12684 -6.3958,0 -11.22819,3.12684 -4.83238,2.98471 -7.67496,8.24348 -2.70045,5.11665 -2.70045,11.93884 0,6.68006 2.70045,12.08097 2.84258,5.25877 7.67496,8.24348 4.83239,2.98471 11.22819,2.98471 z"
         style="font-weight:bold;font-family:'Plus Jakarta Sans';-inkscape-font-specification:'Plus Jakarta Sans Bold'"
         id="path1001" />
      <path
         d="m 234.97748,415.98845 q -11.37032,0 -20.75084,-5.25878 -9.23838,-5.25877 -14.78141,-14.35503 -5.4009,-9.09625 -5.4009,-20.75083 0,-11.65458 5.4009,-20.75083 5.54303,-9.09626 14.78141,-14.35503 9.23839,-5.25877 20.75084,-5.25877 11.37032,0 20.6087,5.25877 9.23839,5.25877 14.63929,14.35503 5.54303,8.95412 5.54303,20.75083 0,11.65458 -5.54303,20.75083 -5.54303,9.09626 -14.78142,14.35503 -9.23838,5.25878 -20.46657,5.25878 z m 0,-17.05548 q 6.25367,0 10.94393,-2.98471 4.83239,-2.98471 7.53284,-8.24348 2.84258,-5.40091 2.84258,-12.08097 0,-6.82219 -2.84258,-11.93884 -2.70045,-5.25877 -7.53284,-8.24348 -4.69026,-3.12684 -10.94393,-3.12684 -6.39581,0 -11.22819,3.12684 -4.83239,2.98471 -7.67497,8.24348 -2.70045,5.11665 -2.70045,11.93884 0,6.68006 2.70045,12.08097 2.84258,5.25877 7.67497,8.24348 4.83238,2.98471 11.22819,2.98471 z"
         style="font-weight:bold;font-family:'Plus Jakarta Sans';-inkscape-font-specification:'Plus Jakarta Sans Bold'"
         id="path1003" />
      <path
         d="M 289.83906,414.2829 V 306.69125 h 18.61889 V 414.2829 Z"
         style="font-weight:bold;font-family:'Plus Jakarta Sans';-inkscape-font-specification:'Plus Jakarta Sans Bold'"
         id="path1005" />
      <path
         d="M 325.6554,442.7087 V 336.96472 h 17.48187 v 15.34993 l -1.70555,-3.83748 q 3.97961,-6.25367 10.8018,-9.66477 6.8222,-3.55322 15.77632,-3.55322 10.94394,0 19.75593,5.4009 8.812,5.4009 13.92864,14.49715 5.25878,9.09626 5.25878,20.46658 0,11.22819 -5.11665,20.46658 -5.11664,9.23838 -13.92864,14.63928 -8.812,5.25878 -20.04019,5.25878 -8.38561,0 -15.49206,-3.26897 -6.96432,-3.4111 -11.08606,-9.66477 l 2.98471,-3.69536 v 43.34935 z m 40.08038,-43.77573 q 6.3958,0 11.37032,-2.98471 4.97451,-2.98471 7.67496,-8.24348 2.84258,-5.25878 2.84258,-12.08097 0,-6.82219 -2.84258,-11.93884 -2.70045,-5.25877 -7.67496,-8.24348 -4.97452,-3.12684 -11.37032,-3.12684 -6.11155,0 -11.08606,2.98471 -4.83239,2.98471 -7.67497,8.38561 -2.70045,5.25878 -2.70045,11.93884 0,6.82219 2.70045,12.08097 2.84258,5.25877 7.67497,8.24348 4.97451,2.98471 11.08606,2.98471 z"
         style="font-weight:bold;font-family:'Plus Jakarta Sans';-inkscape-font-specification:'Plus Jakarta Sans Bold'"
         id="path1007" />
      <path
         d="m 429.12515,445.69341 q -3.12684,0 -6.11155,-0.56852 -2.98471,-0.42639 -5.4009,-1.56342 v -15.63419 q 1.84768,0.42639 4.406,0.85278 2.70045,0.42638 4.97451,0.42638 6.39581,0 9.23839,-2.98471 2.98471,-2.98471 5.25877,-7.81709 l 5.11664,-11.93884 -0.28425,15.63419 -33.68458,-85.13527 h 20.04019 l 23.59342,62.82102 h -7.10645 l 23.45128,-62.82102 h 20.18232 l -33.68457,85.13527 q -2.98471,7.53284 -7.24858,12.79161 -4.26387,5.25878 -9.94903,7.95923 -5.54303,2.84258 -12.79161,2.84258 z"
         style="font-weight:bold;font-family:'Plus Jakarta Sans';-inkscape-font-specification:'Plus Jakarta Sans Bold'"
         id="path1009" />
    </g>
    <circle
       style="fill:none;stroke:#000000;stroke-width:33.7022;stroke-linecap:round;stroke-linejoin:round;stroke-miterlimit:3.3;stroke-dasharray:none;paint-order:markers stroke fill"
       id="circle1453"
       cx="245.62349"
       cy="133.7049"
       r="54.013096" />
    <rect
       style="fill:#000000;fill-opacity:1;stroke:none;stroke-width:46.0805;stroke-linecap:square;stroke-linejoin:miter;stroke-miterlimit:3.3;stroke-dasharray:none;stroke-opacity:1;paint-order:fill markers stroke"
       id="rect1455"
       width="66.89003"
       height="29.229458"
       x="-14.960546"
       y="166.46036"
       ry="10.369368"
       transform="matrix(0.55488737,-0.83192548,0.84316611,0.53765315,0,0)" />
    <path
       id="path1457"
       style="fill:none;stroke:#000000;stroke-width:43.3315;stroke-linecap:butt;stroke-linejoin:round;stroke-miterlimit:3.3;stroke-dasharray:none;paint-order:fill markers stroke"
       d="m 299.63657,220.06364 c 0,29.83062 -24.18245,54.01308 -54.01308,54.01308 -29.83062,0 -54.01307,-24.18246 -54.01307,-54.01308"
       sodipodi:nodetypes="csc" />
    <circle
       style="fill:none;stroke:#000000;stroke-width:43.3315;stroke-linecap:round;stroke-linejoin:round;stroke-miterlimit:3.3;stroke-dasharray:none;paint-order:markers stroke fill"
       id="circle1459"
       cx="245.62349"
       cy="133.7049"
       r="54.013096" />
  </g>
</svg>
